<mxfile host="app.diagrams.net" modified="2024-02-16T23:03:03.133Z" agent="Mozilla/5.0 (Windows NT 10.0; Win64; x64) AppleWebKit/537.36 (KHTML, like Gecko) Chrome/121.0.0.0 Safari/537.36" etag="pJQbObvhzgXQmW0fm_RN" scale="1" border="0" version="23.1.4" type="device">
  <diagram id="JIO4U5yVURzNJD8ckPtT" name="Page-1">
    <mxGraphModel dx="882" dy="578" grid="1" gridSize="10" guides="1" tooltips="1" connect="1" arrows="1" fold="1" page="1" pageScale="1" pageWidth="850" pageHeight="1100" math="0" shadow="0">
      <root>
        <mxCell id="0" />
        <mxCell id="1" parent="0" />
        <mxCell id="At9daDqTqGgUnNfYn9DA-27" style="edgeStyle=orthogonalEdgeStyle;rounded=0;orthogonalLoop=1;jettySize=auto;html=1;exitX=0.5;exitY=0;exitDx=0;exitDy=0;entryX=0;entryY=0.5;entryDx=0;entryDy=0;" edge="1" parent="1" source="At9daDqTqGgUnNfYn9DA-1" target="At9daDqTqGgUnNfYn9DA-3">
          <mxGeometry relative="1" as="geometry" />
        </mxCell>
        <mxCell id="At9daDqTqGgUnNfYn9DA-1" value="Stream of new data (user-ad interations)" style="rounded=1;whiteSpace=wrap;html=1;" vertex="1" parent="1">
          <mxGeometry x="40" y="160" width="120" height="60" as="geometry" />
        </mxCell>
        <mxCell id="At9daDqTqGgUnNfYn9DA-2" value="" style="swimlane;startSize=0;" vertex="1" parent="1">
          <mxGeometry x="200" y="40" width="600" height="280" as="geometry" />
        </mxCell>
        <mxCell id="At9daDqTqGgUnNfYn9DA-28" style="edgeStyle=orthogonalEdgeStyle;rounded=0;orthogonalLoop=1;jettySize=auto;html=1;exitX=1;exitY=0.5;exitDx=0;exitDy=0;" edge="1" parent="At9daDqTqGgUnNfYn9DA-2" source="At9daDqTqGgUnNfYn9DA-3" target="At9daDqTqGgUnNfYn9DA-5">
          <mxGeometry relative="1" as="geometry" />
        </mxCell>
        <mxCell id="At9daDqTqGgUnNfYn9DA-36" style="edgeStyle=orthogonalEdgeStyle;rounded=0;orthogonalLoop=1;jettySize=auto;html=1;exitX=0.5;exitY=1;exitDx=0;exitDy=0;entryX=0.5;entryY=0;entryDx=0;entryDy=0;" edge="1" parent="At9daDqTqGgUnNfYn9DA-2" source="At9daDqTqGgUnNfYn9DA-3" target="At9daDqTqGgUnNfYn9DA-6">
          <mxGeometry relative="1" as="geometry" />
        </mxCell>
        <mxCell id="At9daDqTqGgUnNfYn9DA-3" value="New data" style="rounded=1;whiteSpace=wrap;html=1;" vertex="1" parent="At9daDqTqGgUnNfYn9DA-2">
          <mxGeometry x="40" y="40" width="120" height="60" as="geometry" />
        </mxCell>
        <mxCell id="At9daDqTqGgUnNfYn9DA-29" style="edgeStyle=orthogonalEdgeStyle;rounded=0;orthogonalLoop=1;jettySize=auto;html=1;exitX=1;exitY=0.5;exitDx=0;exitDy=0;entryX=0;entryY=0.5;entryDx=0;entryDy=0;" edge="1" parent="At9daDqTqGgUnNfYn9DA-2" source="At9daDqTqGgUnNfYn9DA-4" target="At9daDqTqGgUnNfYn9DA-6">
          <mxGeometry relative="1" as="geometry" />
        </mxCell>
        <mxCell id="At9daDqTqGgUnNfYn9DA-35" style="edgeStyle=orthogonalEdgeStyle;rounded=0;orthogonalLoop=1;jettySize=auto;html=1;exitX=1;exitY=0.25;exitDx=0;exitDy=0;entryX=0;entryY=0.75;entryDx=0;entryDy=0;" edge="1" parent="At9daDqTqGgUnNfYn9DA-2" source="At9daDqTqGgUnNfYn9DA-4" target="At9daDqTqGgUnNfYn9DA-5">
          <mxGeometry relative="1" as="geometry" />
        </mxCell>
        <mxCell id="At9daDqTqGgUnNfYn9DA-4" value="Data lake" style="rounded=1;whiteSpace=wrap;html=1;" vertex="1" parent="At9daDqTqGgUnNfYn9DA-2">
          <mxGeometry x="40" y="160" width="120" height="60" as="geometry" />
        </mxCell>
        <mxCell id="At9daDqTqGgUnNfYn9DA-31" style="edgeStyle=orthogonalEdgeStyle;rounded=0;orthogonalLoop=1;jettySize=auto;html=1;exitX=1;exitY=0.5;exitDx=0;exitDy=0;entryX=0;entryY=0.5;entryDx=0;entryDy=0;" edge="1" parent="At9daDqTqGgUnNfYn9DA-2" source="At9daDqTqGgUnNfYn9DA-5" target="At9daDqTqGgUnNfYn9DA-7">
          <mxGeometry relative="1" as="geometry" />
        </mxCell>
        <mxCell id="At9daDqTqGgUnNfYn9DA-5" value="Batch feature computation" style="rounded=1;whiteSpace=wrap;html=1;" vertex="1" parent="At9daDqTqGgUnNfYn9DA-2">
          <mxGeometry x="240" y="40" width="120" height="60" as="geometry" />
        </mxCell>
        <mxCell id="At9daDqTqGgUnNfYn9DA-30" style="edgeStyle=orthogonalEdgeStyle;rounded=0;orthogonalLoop=1;jettySize=auto;html=1;exitX=1;exitY=0.5;exitDx=0;exitDy=0;" edge="1" parent="At9daDqTqGgUnNfYn9DA-2" source="At9daDqTqGgUnNfYn9DA-6" target="At9daDqTqGgUnNfYn9DA-8">
          <mxGeometry relative="1" as="geometry" />
        </mxCell>
        <mxCell id="At9daDqTqGgUnNfYn9DA-6" value="Online feature computation" style="rounded=1;whiteSpace=wrap;html=1;" vertex="1" parent="At9daDqTqGgUnNfYn9DA-2">
          <mxGeometry x="240" y="160" width="120" height="60" as="geometry" />
        </mxCell>
        <mxCell id="At9daDqTqGgUnNfYn9DA-32" style="edgeStyle=orthogonalEdgeStyle;rounded=0;orthogonalLoop=1;jettySize=auto;html=1;exitX=0.5;exitY=1;exitDx=0;exitDy=0;entryX=0.5;entryY=0;entryDx=0;entryDy=0;" edge="1" parent="At9daDqTqGgUnNfYn9DA-2" source="At9daDqTqGgUnNfYn9DA-7" target="At9daDqTqGgUnNfYn9DA-8">
          <mxGeometry relative="1" as="geometry" />
        </mxCell>
        <mxCell id="At9daDqTqGgUnNfYn9DA-7" value="Feature store" style="rounded=1;whiteSpace=wrap;html=1;" vertex="1" parent="At9daDqTqGgUnNfYn9DA-2">
          <mxGeometry x="440" y="40" width="120" height="60" as="geometry" />
        </mxCell>
        <mxCell id="At9daDqTqGgUnNfYn9DA-8" value="Dataset generation" style="rounded=1;whiteSpace=wrap;html=1;" vertex="1" parent="At9daDqTqGgUnNfYn9DA-2">
          <mxGeometry x="440" y="160" width="120" height="60" as="geometry" />
        </mxCell>
        <mxCell id="At9daDqTqGgUnNfYn9DA-38" value="Data preparation pipeline" style="text;html=1;align=center;verticalAlign=middle;whiteSpace=wrap;rounded=0;" vertex="1" parent="At9daDqTqGgUnNfYn9DA-2">
          <mxGeometry x="400" y="240" width="200" height="40" as="geometry" />
        </mxCell>
        <mxCell id="At9daDqTqGgUnNfYn9DA-9" value="" style="swimlane;startSize=0;" vertex="1" parent="1">
          <mxGeometry x="40" y="360" width="760" height="160" as="geometry" />
        </mxCell>
        <mxCell id="At9daDqTqGgUnNfYn9DA-40" style="edgeStyle=orthogonalEdgeStyle;rounded=0;orthogonalLoop=1;jettySize=auto;html=1;exitX=0;exitY=0.5;exitDx=0;exitDy=0;entryX=1;entryY=0.5;entryDx=0;entryDy=0;" edge="1" parent="At9daDqTqGgUnNfYn9DA-9" source="At9daDqTqGgUnNfYn9DA-10" target="At9daDqTqGgUnNfYn9DA-11">
          <mxGeometry relative="1" as="geometry" />
        </mxCell>
        <mxCell id="At9daDqTqGgUnNfYn9DA-10" value="Training dataset" style="rounded=1;whiteSpace=wrap;html=1;" vertex="1" parent="At9daDqTqGgUnNfYn9DA-9">
          <mxGeometry x="600" y="40" width="120" height="60" as="geometry" />
        </mxCell>
        <mxCell id="At9daDqTqGgUnNfYn9DA-41" style="edgeStyle=orthogonalEdgeStyle;rounded=0;orthogonalLoop=1;jettySize=auto;html=1;exitX=0;exitY=0.5;exitDx=0;exitDy=0;entryX=1;entryY=0.5;entryDx=0;entryDy=0;" edge="1" parent="At9daDqTqGgUnNfYn9DA-9" source="At9daDqTqGgUnNfYn9DA-11" target="At9daDqTqGgUnNfYn9DA-12">
          <mxGeometry relative="1" as="geometry" />
        </mxCell>
        <mxCell id="At9daDqTqGgUnNfYn9DA-11" value="Model training" style="rounded=1;whiteSpace=wrap;html=1;" vertex="1" parent="At9daDqTqGgUnNfYn9DA-9">
          <mxGeometry x="400" y="40" width="120" height="60" as="geometry" />
        </mxCell>
        <mxCell id="At9daDqTqGgUnNfYn9DA-43" style="edgeStyle=orthogonalEdgeStyle;rounded=0;orthogonalLoop=1;jettySize=auto;html=1;exitX=0;exitY=0.5;exitDx=0;exitDy=0;entryX=1;entryY=0.5;entryDx=0;entryDy=0;" edge="1" parent="At9daDqTqGgUnNfYn9DA-9" source="At9daDqTqGgUnNfYn9DA-12" target="At9daDqTqGgUnNfYn9DA-13">
          <mxGeometry relative="1" as="geometry" />
        </mxCell>
        <mxCell id="At9daDqTqGgUnNfYn9DA-12" value="Model validation and deployment" style="rounded=1;whiteSpace=wrap;html=1;" vertex="1" parent="At9daDqTqGgUnNfYn9DA-9">
          <mxGeometry x="200" y="40" width="120" height="60" as="geometry" />
        </mxCell>
        <mxCell id="At9daDqTqGgUnNfYn9DA-13" value="Model registry" style="rounded=1;whiteSpace=wrap;html=1;" vertex="1" parent="At9daDqTqGgUnNfYn9DA-9">
          <mxGeometry x="40" y="40" width="120" height="60" as="geometry" />
        </mxCell>
        <mxCell id="At9daDqTqGgUnNfYn9DA-26" value="Continual learning pipeline" style="text;html=1;align=center;verticalAlign=middle;whiteSpace=wrap;rounded=0;" vertex="1" parent="At9daDqTqGgUnNfYn9DA-9">
          <mxGeometry x="560" y="120" width="200" height="40" as="geometry" />
        </mxCell>
        <mxCell id="At9daDqTqGgUnNfYn9DA-14" value="" style="swimlane;startSize=0;" vertex="1" parent="1">
          <mxGeometry x="600" y="560" width="200" height="160" as="geometry" />
        </mxCell>
        <mxCell id="At9daDqTqGgUnNfYn9DA-15" value="Ranked Ads" style="rounded=1;whiteSpace=wrap;html=1;" vertex="1" parent="At9daDqTqGgUnNfYn9DA-14">
          <mxGeometry x="40" y="40" width="120" height="60" as="geometry" />
        </mxCell>
        <mxCell id="At9daDqTqGgUnNfYn9DA-18" value="" style="swimlane;startSize=0;" vertex="1" parent="1">
          <mxGeometry x="40" y="760" width="760" height="280" as="geometry" />
        </mxCell>
        <mxCell id="At9daDqTqGgUnNfYn9DA-48" style="edgeStyle=orthogonalEdgeStyle;rounded=0;orthogonalLoop=1;jettySize=auto;html=1;exitX=1;exitY=0.5;exitDx=0;exitDy=0;entryX=0;entryY=0.5;entryDx=0;entryDy=0;" edge="1" parent="At9daDqTqGgUnNfYn9DA-18" source="At9daDqTqGgUnNfYn9DA-19" target="At9daDqTqGgUnNfYn9DA-22">
          <mxGeometry relative="1" as="geometry" />
        </mxCell>
        <mxCell id="At9daDqTqGgUnNfYn9DA-19" value="Candidate generation service" style="rounded=1;whiteSpace=wrap;html=1;" vertex="1" parent="At9daDqTqGgUnNfYn9DA-18">
          <mxGeometry x="40" y="40" width="120" height="60" as="geometry" />
        </mxCell>
        <mxCell id="At9daDqTqGgUnNfYn9DA-20" value="Re-ranking service" style="rounded=1;whiteSpace=wrap;html=1;" vertex="1" parent="At9daDqTqGgUnNfYn9DA-18">
          <mxGeometry x="600" y="40" width="120" height="60" as="geometry" />
        </mxCell>
        <mxCell id="At9daDqTqGgUnNfYn9DA-50" style="edgeStyle=orthogonalEdgeStyle;rounded=0;orthogonalLoop=1;jettySize=auto;html=1;exitX=0.5;exitY=0;exitDx=0;exitDy=0;entryX=0.5;entryY=1;entryDx=0;entryDy=0;" edge="1" parent="At9daDqTqGgUnNfYn9DA-18" source="At9daDqTqGgUnNfYn9DA-21" target="At9daDqTqGgUnNfYn9DA-19">
          <mxGeometry relative="1" as="geometry" />
        </mxCell>
        <mxCell id="At9daDqTqGgUnNfYn9DA-21" value="Pool of Ads" style="rounded=1;whiteSpace=wrap;html=1;" vertex="1" parent="At9daDqTqGgUnNfYn9DA-18">
          <mxGeometry x="40" y="160" width="120" height="60" as="geometry" />
        </mxCell>
        <mxCell id="At9daDqTqGgUnNfYn9DA-49" style="edgeStyle=orthogonalEdgeStyle;rounded=0;orthogonalLoop=1;jettySize=auto;html=1;exitX=1;exitY=0.5;exitDx=0;exitDy=0;entryX=0;entryY=0.5;entryDx=0;entryDy=0;" edge="1" parent="At9daDqTqGgUnNfYn9DA-18" source="At9daDqTqGgUnNfYn9DA-22" target="At9daDqTqGgUnNfYn9DA-20">
          <mxGeometry relative="1" as="geometry" />
        </mxCell>
        <mxCell id="At9daDqTqGgUnNfYn9DA-22" value="Ranking service" style="rounded=1;whiteSpace=wrap;html=1;" vertex="1" parent="At9daDqTqGgUnNfYn9DA-18">
          <mxGeometry x="320" y="40" width="120" height="60" as="geometry" />
        </mxCell>
        <mxCell id="At9daDqTqGgUnNfYn9DA-51" style="edgeStyle=orthogonalEdgeStyle;rounded=0;orthogonalLoop=1;jettySize=auto;html=1;exitX=0.5;exitY=0;exitDx=0;exitDy=0;entryX=0.25;entryY=1;entryDx=0;entryDy=0;" edge="1" parent="At9daDqTqGgUnNfYn9DA-18" source="At9daDqTqGgUnNfYn9DA-23" target="At9daDqTqGgUnNfYn9DA-22">
          <mxGeometry relative="1" as="geometry" />
        </mxCell>
        <mxCell id="At9daDqTqGgUnNfYn9DA-23" value="Feature store" style="rounded=1;whiteSpace=wrap;html=1;" vertex="1" parent="At9daDqTqGgUnNfYn9DA-18">
          <mxGeometry x="240" y="160" width="120" height="60" as="geometry" />
        </mxCell>
        <mxCell id="At9daDqTqGgUnNfYn9DA-52" style="edgeStyle=orthogonalEdgeStyle;rounded=0;orthogonalLoop=1;jettySize=auto;html=1;exitX=0.5;exitY=0;exitDx=0;exitDy=0;entryX=0.75;entryY=1;entryDx=0;entryDy=0;" edge="1" parent="At9daDqTqGgUnNfYn9DA-18" source="At9daDqTqGgUnNfYn9DA-24" target="At9daDqTqGgUnNfYn9DA-22">
          <mxGeometry relative="1" as="geometry" />
        </mxCell>
        <mxCell id="At9daDqTqGgUnNfYn9DA-24" value="Online feature computation" style="rounded=1;whiteSpace=wrap;html=1;" vertex="1" parent="At9daDqTqGgUnNfYn9DA-18">
          <mxGeometry x="400" y="160" width="120" height="60" as="geometry" />
        </mxCell>
        <mxCell id="At9daDqTqGgUnNfYn9DA-54" value="Prediction pipeline" style="text;html=1;align=center;verticalAlign=middle;whiteSpace=wrap;rounded=0;" vertex="1" parent="At9daDqTqGgUnNfYn9DA-18">
          <mxGeometry x="550" y="240" width="200" height="40" as="geometry" />
        </mxCell>
        <mxCell id="At9daDqTqGgUnNfYn9DA-53" style="edgeStyle=orthogonalEdgeStyle;rounded=0;orthogonalLoop=1;jettySize=auto;html=1;exitX=0.5;exitY=1;exitDx=0;exitDy=0;entryX=0.5;entryY=0;entryDx=0;entryDy=0;" edge="1" parent="1" source="At9daDqTqGgUnNfYn9DA-25" target="At9daDqTqGgUnNfYn9DA-22">
          <mxGeometry relative="1" as="geometry" />
        </mxCell>
        <mxCell id="At9daDqTqGgUnNfYn9DA-25" value="&amp;nbsp;ML model" style="rounded=1;whiteSpace=wrap;html=1;" vertex="1" parent="1">
          <mxGeometry x="240" y="600" width="120" height="60" as="geometry" />
        </mxCell>
        <mxCell id="At9daDqTqGgUnNfYn9DA-39" style="edgeStyle=orthogonalEdgeStyle;rounded=0;orthogonalLoop=1;jettySize=auto;html=1;exitX=0.5;exitY=1;exitDx=0;exitDy=0;entryX=0.5;entryY=0;entryDx=0;entryDy=0;" edge="1" parent="1" source="At9daDqTqGgUnNfYn9DA-8" target="At9daDqTqGgUnNfYn9DA-10">
          <mxGeometry relative="1" as="geometry" />
        </mxCell>
        <mxCell id="At9daDqTqGgUnNfYn9DA-44" style="edgeStyle=orthogonalEdgeStyle;rounded=0;orthogonalLoop=1;jettySize=auto;html=1;exitX=0.5;exitY=1;exitDx=0;exitDy=0;" edge="1" parent="1" source="At9daDqTqGgUnNfYn9DA-12" target="At9daDqTqGgUnNfYn9DA-25">
          <mxGeometry relative="1" as="geometry" />
        </mxCell>
        <mxCell id="At9daDqTqGgUnNfYn9DA-45" style="edgeStyle=orthogonalEdgeStyle;rounded=0;orthogonalLoop=1;jettySize=auto;html=1;exitX=0.5;exitY=0;exitDx=0;exitDy=0;entryX=0.5;entryY=1;entryDx=0;entryDy=0;" edge="1" parent="1" source="At9daDqTqGgUnNfYn9DA-20" target="At9daDqTqGgUnNfYn9DA-15">
          <mxGeometry relative="1" as="geometry" />
        </mxCell>
        <mxCell id="At9daDqTqGgUnNfYn9DA-47" style="edgeStyle=orthogonalEdgeStyle;rounded=0;orthogonalLoop=1;jettySize=auto;html=1;exitX=0.5;exitY=1;exitDx=0;exitDy=0;entryX=0.5;entryY=0;entryDx=0;entryDy=0;" edge="1" parent="1" source="At9daDqTqGgUnNfYn9DA-46" target="At9daDqTqGgUnNfYn9DA-19">
          <mxGeometry relative="1" as="geometry" />
        </mxCell>
        <mxCell id="At9daDqTqGgUnNfYn9DA-46" value="User" style="rounded=1;whiteSpace=wrap;html=1;" vertex="1" parent="1">
          <mxGeometry x="80" y="600" width="120" height="60" as="geometry" />
        </mxCell>
      </root>
    </mxGraphModel>
  </diagram>
</mxfile>
